<svg xmlns="http://www.w3.org/2000/svg" viewBox="0 0 108 108" width="108" height="108" role="img" aria-labelledby="t"><title id="t">Primer ejemplo del curso: juegan las negras y la jugada que gana es tranquila, una torre que baja a e1 sin dar jaque ni capturar.</title><defs><g id="bR" class="black rook" fill="var(--piece-black)" fill-rule="evenodd" stroke="#000" stroke-width="1.5" stroke-linecap="round" stroke-linejoin="round"><path d="M9 39h27v-3H9v3zM12.5 32l1.5-2.5h17l1.5 2.5h-20zM12 36v-4h21v4H12z" stroke-linecap="butt"/><path d="M14 29.5v-13h17v13H14z" stroke-linecap="butt" stroke-linejoin="miter"/><path d="M14 16.5L11 14h23l-3 2.5H14zM11 14V9h4v2h5V9h5v2h5V9h4v5H11z" stroke-linecap="butt"/><path d="M12 35.5h21M13 31.5h19M14 29.5h17M14 16.5h17M11 14h23" fill="none" stroke="#fff" stroke-width="1" stroke-linejoin="miter"/></g><g id="bP" class="black pawn"><path d="M22.5 9c-2.21 0-4 1.79-4 4 0 .89.29 1.71.78 2.38C17.33 16.5 16 18.59 16 21c0 2.03.94 3.84 2.41 5.03-3 1.06-7.41 5.55-7.41 13.47h23c0-7.92-4.41-12.41-7.41-13.47 1.47-1.19 2.41-3 2.41-5.03 0-2.41-1.33-4.5-3.28-5.62.49-.67.78-1.49.78-2.38 0-2.21-1.79-4-4-4z" fill="var(--piece-black)" stroke="#000" stroke-width="1.5" stroke-linecap="round"/></g><g id="wR" class="white rook" fill="var(--piece-white)" fill-rule="evenodd" stroke="#000" stroke-width="1.5" stroke-linecap="round" stroke-linejoin="round"><path d="M9 39h27v-3H9v3zM12 36v-4h21v4H12zM11 14V9h4v2h5V9h5v2h5V9h4v5" stroke-linecap="butt"/><path d="M34 14l-3 3H14l-3-3"/><path d="M31 17v12.5H14V17" stroke-linecap="butt" stroke-linejoin="miter"/><path d="M31 29.5l1.5 2.5h-20l1.5-2.5"/><path d="M11 14h23" fill="none" stroke-linejoin="miter"/></g><g id="bK" class="black king" fill="none" fill-rule="evenodd" stroke="#000" stroke-width="1.5" stroke-linecap="round" stroke-linejoin="round"><path d="M22.5 11.63V6" stroke-linejoin="miter"/><path d="M22.5 25s4.5-7.5 3-10.5c0 0-1-2.5-3-2.5s-3 2.5-3 2.5c-1.5 3 3 10.5 3 10.5" fill="var(--piece-black)" stroke-linecap="butt" stroke-linejoin="miter"/><path d="M11.5 37c5.5 3.5 15.5 3.5 21 0v-7s9-4.5 6-10.5c-4-6.5-13.5-3.5-16 4V27v-3.5c-3.5-7.5-13-10.5-16-4-3 6 5 10 5 10V37z" fill="var(--piece-black)"/><path d="M20 8h5" stroke-linejoin="miter"/><path d="M32 29.5s8.5-4 6.03-9.65C34.15 14 25 18 22.5 24.5l.01 2.1-.01-2.1C20 18 9.906 14 6.997 19.85c-2.497 5.65 4.853 9 4.853 9M11.5 30c5.5-3 15.5-3 21 0m-21 3.5c5.5-3 15.5-3 21 0m-21 3.5c5.5-3 15.5-3 21 0" stroke="#fff"/></g><g id="wP" class="white pawn"><path d="M22.5 9c-2.21 0-4 1.79-4 4 0 .89.29 1.71.78 2.38C17.33 16.5 16 18.59 16 21c0 2.03.94 3.84 2.41 5.03-3 1.06-7.41 5.55-7.41 13.47h23c0-7.92-4.41-12.41-7.41-13.47 1.47-1.19 2.41-3 2.41-5.03 0-2.41-1.33-4.5-3.28-5.62.49-.67.78-1.49.78-2.38 0-2.21-1.79-4-4-4z" fill="var(--piece-white)" stroke="#000" stroke-width="1.5" stroke-linecap="round"/></g><g id="wQ" class="white queen" fill="var(--piece-white)" fill-rule="evenodd" stroke="#000" stroke-width="1.5" stroke-linecap="round" stroke-linejoin="round"><path d="M8 12a2 2 0 1 1-4 0 2 2 0 1 1 4 0zM24.5 7.5a2 2 0 1 1-4 0 2 2 0 1 1 4 0zM41 12a2 2 0 1 1-4 0 2 2 0 1 1 4 0zM16 8.5a2 2 0 1 1-4 0 2 2 0 1 1 4 0zM33 9a2 2 0 1 1-4 0 2 2 0 1 1 4 0z"/><path d="M9 26c8.5-1.5 21-1.5 27 0l2-12-7 11V11l-5.5 13.5-3-15-3 15-5.5-14V25L7 14l2 12zM9 26c0 2 1.5 2 2.5 4 1 1.5 1 1 .5 3.5-1.5 1-1.5 2.5-1.5 2.5-1.5 1.5.5 2.5.5 2.5 6.5 1 16.5 1 23 0 0 0 1.5-1 0-2.5 0 0 .5-1.5-1-2.5-.5-2.5-.5-2 .5-3.5 1-2 2.5-2 2.5-4-8.5-1.5-18.5-1.5-27 0z" stroke-linecap="butt"/><path d="M11.5 30c3.5-1 18.5-1 22 0M12 33.5c6-1 15-1 21 0" fill="none"/></g><g id="wK" class="white king" fill="none" fill-rule="evenodd" stroke="#000" stroke-width="1.5" stroke-linecap="round" stroke-linejoin="round"><path d="M22.5 11.63V6M20 8h5" stroke-linejoin="miter"/><path d="M22.5 25s4.5-7.5 3-10.5c0 0-1-2.5-3-2.5s-3 2.5-3 2.5c-1.5 3 3 10.5 3 10.5" fill="var(--piece-white)" stroke-linecap="butt" stroke-linejoin="miter"/><path d="M11.5 37c5.5 3.5 15.5 3.5 21 0v-7s9-4.5 6-10.5c-4-6.5-13.5-3.5-16 4V27v-3.5c-3.5-7.5-13-10.5-16-4-3 6 5 10 5 10V37z" fill="var(--piece-white)"/><path d="M11.5 30c5.5-3 15.5-3 21 0m-21 3.5c5.5-3 15.5-3 21 0m-21 3.5c5.5-3 15.5-3 21 0"/></g><g id="bQ" class="black queen" fill="var(--piece-black)" fill-rule="evenodd" stroke="#000" stroke-width="1.5" stroke-linecap="round" stroke-linejoin="round"><g fill="var(--piece-black)" stroke="none"><circle cx="6" cy="12" r="2.75"/><circle cx="14" cy="9" r="2.75"/><circle cx="22.5" cy="8" r="2.75"/><circle cx="31" cy="9" r="2.75"/><circle cx="39" cy="12" r="2.75"/></g><path d="M9 26c8.5-1.5 21-1.5 27 0l2.5-12.5L31 25l-.3-14.1-5.2 13.6-3-14.5-3 14.5-5.2-13.6L14 25 6.5 13.5 9 26zM9 26c0 2 1.5 2 2.5 4 1 1.5 1 1 .5 3.5-1.5 1-1.5 2.5-1.5 2.5-1.5 1.5.5 2.5.5 2.5 6.5 1 16.5 1 23 0 0 0 1.5-1 0-2.5 0 0 .5-1.5-1-2.5-.5-2.5-.5-2 .5-3.5 1-2 2.5-2 2.5-4-8.5-1.5-18.5-1.5-27 0z" stroke-linecap="butt"/><path d="M11 38.5a35 35 1 0 0 23 0" fill="none" stroke-linecap="butt"/><path d="M11 29a35 35 1 0 1 23 0M12.5 31.5h20M11.5 34.5a35 35 1 0 0 22 0M10.5 37.5a35 35 1 0 0 24 0" fill="none" stroke="#fff"/></g></defs><style>:root{--piece-white:#fff;--piece-black:#17202a;}</style><rect x="0" width="108" height="108" rx="4" fill="#243b53"/><rect x="6" y="6" width="12" height="12" fill="#f0f4f8"/><rect x="18" y="6" width="12" height="12" fill="#627d98"/><rect x="30" y="6" width="12" height="12" fill="#f0f4f8"/><rect x="42" y="6" width="12" height="12" fill="#627d98"/><rect x="54" y="6" width="12" height="12" fill="#f0f4f8"/><rect x="66" y="6" width="12" height="12" fill="#627d98"/><rect x="78" y="6" width="12" height="12" fill="#f0f4f8"/><rect x="90" y="6" width="12" height="12" fill="#627d98"/><rect x="6" y="18" width="12" height="12" fill="#627d98"/><rect x="18" y="18" width="12" height="12" fill="#f0f4f8"/><rect x="30" y="18" width="12" height="12" fill="#627d98"/><rect x="42" y="18" width="12" height="12" fill="#f0f4f8"/><rect x="54" y="18" width="12" height="12" fill="#627d98"/><rect x="66" y="18" width="12" height="12" fill="#f0f4f8"/><rect x="78" y="18" width="12" height="12" fill="#627d98"/><rect x="90" y="18" width="12" height="12" fill="#f0f4f8"/><rect x="6" y="30" width="12" height="12" fill="#f0f4f8"/><rect x="18" y="30" width="12" height="12" fill="#627d98"/><rect x="30" y="30" width="12" height="12" fill="#f0f4f8"/><rect x="42" y="30" width="12" height="12" fill="#627d98"/><rect x="54" y="30" width="12" height="12" fill="#f0f4f8"/><rect x="66" y="30" width="12" height="12" fill="#627d98"/><rect x="78" y="30" width="12" height="12" fill="#f0f4f8"/><rect x="90" y="30" width="12" height="12" fill="#627d98"/><rect x="6" y="42" width="12" height="12" fill="#627d98"/><rect x="18" y="42" width="12" height="12" fill="#f0f4f8"/><rect x="30" y="42" width="12" height="12" fill="#627d98"/><rect x="42" y="42" width="12" height="12" fill="#f0f4f8"/><rect x="54" y="42" width="12" height="12" fill="#627d98"/><rect x="66" y="42" width="12" height="12" fill="#f0f4f8"/><rect x="78" y="42" width="12" height="12" fill="#627d98"/><rect x="90" y="42" width="12" height="12" fill="#f0f4f8"/><rect x="6" y="54" width="12" height="12" fill="#f0f4f8"/><rect x="18" y="54" width="12" height="12" fill="#627d98"/><rect x="30" y="54" width="12" height="12" fill="#f0f4f8"/><rect x="42" y="54" width="12" height="12" fill="#627d98"/><rect x="54" y="54" width="12" height="12" fill="#f0f4f8"/><rect x="66" y="54" width="12" height="12" fill="#627d98"/><rect x="78" y="54" width="12" height="12" fill="#f0f4f8"/><rect x="90" y="54" width="12" height="12" fill="#627d98"/><rect x="6" y="66" width="12" height="12" fill="#627d98"/><rect x="18" y="66" width="12" height="12" fill="#f0f4f8"/><rect x="30" y="66" width="12" height="12" fill="#627d98"/><rect x="42" y="66" width="12" height="12" fill="#f0f4f8"/><rect x="54" y="66" width="12" height="12" fill="#627d98"/><rect x="66" y="66" width="12" height="12" fill="#f0f4f8"/><rect x="78" y="66" width="12" height="12" fill="#627d98"/><rect x="90" y="66" width="12" height="12" fill="#f0f4f8"/><rect x="6" y="78" width="12" height="12" fill="#f0f4f8"/><rect x="18" y="78" width="12" height="12" fill="#627d98"/><rect x="30" y="78" width="12" height="12" fill="#f0f4f8"/><rect x="42" y="78" width="12" height="12" fill="#627d98"/><rect x="54" y="78" width="12" height="12" fill="#f0f4f8"/><rect x="66" y="78" width="12" height="12" fill="#627d98"/><rect x="78" y="78" width="12" height="12" fill="#f0f4f8"/><rect x="90" y="78" width="12" height="12" fill="#627d98"/><rect x="6" y="90" width="12" height="12" fill="#627d98"/><rect x="18" y="90" width="12" height="12" fill="#f0f4f8"/><rect x="30" y="90" width="12" height="12" fill="#627d98"/><rect x="42" y="90" width="12" height="12" fill="#f0f4f8"/><rect x="54" y="90" width="12" height="12" fill="#627d98"/><rect x="66" y="90" width="12" height="12" fill="#f0f4f8"/><rect x="78" y="90" width="12" height="12" fill="#627d98"/><rect x="90" y="90" width="12" height="12" fill="#f0f4f8"/><rect x="54" y="6" width="12" height="12" fill="#f0b429" fill-opacity="0.55"/><rect x="54" y="90" width="12" height="12" fill="#f0b429" fill-opacity="0.55"/><use href="#bR" transform="translate(54.48,6.48) scale(0.2453)"/><use href="#bP" transform="translate(18.48,18.48) scale(0.2453)"/><use href="#bP" transform="translate(30.48,18.48) scale(0.2453)"/><use href="#wR" transform="translate(42.48,18.48) scale(0.2453)"/><use href="#bP" transform="translate(6.48,30.48) scale(0.2453)"/><use href="#bP" transform="translate(78.48,30.48) scale(0.2453)"/><use href="#bK" transform="translate(90.48,30.48) scale(0.2453)"/><use href="#bP" transform="translate(90.48,42.48) scale(0.2453)"/><use href="#wP" transform="translate(42.48,54.48) scale(0.2453)"/><use href="#wQ" transform="translate(78.48,66.48) scale(0.2453)"/><use href="#wP" transform="translate(90.48,66.48) scale(0.2453)"/><use href="#wP" transform="translate(6.48,78.48) scale(0.2453)"/><use href="#wP" transform="translate(18.48,78.48) scale(0.2453)"/><use href="#wP" transform="translate(30.48,78.48) scale(0.2453)"/><use href="#wP" transform="translate(78.48,78.48) scale(0.2453)"/><use href="#wK" transform="translate(90.48,78.48) scale(0.2453)"/><use href="#bQ" transform="translate(66.48,90.48) scale(0.2453)"/></svg>